<svg width="16" height="16" viewBox="0 0 16 16" fill="none" xmlns="http://www.w3.org/2000/svg">
<path d="M15.68 8.18226C15.68 7.61499 15.6291 7.06953 15.5345 6.5459H8V9.64408H12.3055C12.1164 10.6404 11.5491 11.4841 10.6982 12.0514V14.0659H13.2945C14.8073 12.6695 15.68 10.6186 15.68 8.18226Z" fill="#4285F4"/>
<path d="M7.99924 16.0001C10.1592 16.0001 11.9701 15.2873 13.2938 14.0655L10.6974 12.051C9.98469 12.531 9.0756 12.8219 7.99924 12.8219C5.91924 12.8219 4.15197 11.4183 3.51924 9.52734H0.857422V11.5928C2.17379 14.2037 4.87197 16.0001 7.99924 16.0001Z" fill="#34A853"/>
<path d="M3.52 9.52049C3.36 9.04049 3.26545 8.5314 3.26545 8.00049C3.26545 7.46958 3.36 6.96049 3.52 6.48049V4.41504H0.858182C0.312727 5.4914 0 6.70595 0 8.00049C0 9.29504 0.312727 10.5096 0.858182 11.5859L2.93091 9.9714L3.52 9.52049Z" fill="#FBBC05"/>
<path d="M7.99924 3.18545C9.17742 3.18545 10.2247 3.59273 11.0611 4.37818L13.352 2.08727C11.9629 0.792727 10.1592 0 7.99924 0C4.87197 0 2.17379 1.79636 0.857422 4.41455L3.51924 6.48C4.15197 4.58909 5.91924 3.18545 7.99924 3.18545Z" fill="#EA4335"/>
</svg>
